<?xml version="1.0" standalone="no"?>
<!DOCTYPE svg PUBLIC "-//W3C//DTD SVG 20010904//EN"
 "http://www.w3.org/TR/2001/REC-SVG-20010904/DTD/svg10.dtd">
<svg version="1.0" xmlns="http://www.w3.org/2000/svg"
 width="32.000000pt" height="32.000000pt" viewBox="0 0 32.000000 32.000000"
 preserveAspectRatio="xMidYMid meet">

<g transform="translate(0.000000,32.000000) scale(0.100000,-0.100000)"
fill="#000000" stroke="none">
<path d="M67 283 c-13 -13 -7 -32 8 -27 8 4 15 12 15 20 0 15 -12 19 -23 7z"/>
<path d="M98 243 c-30 -12 -38 -21 -38 -40 0 -24 1 -24 23 -11 12 8 37 23 56
33 26 13 31 19 20 26 -18 11 -17 11 -61 -8z"/>
<path d="M185 214 c-11 -3 -44 -17 -72 -32 -39 -20 -53 -33 -53 -49 0 -20 4
-19 75 20 41 22 75 46 75 54 0 7 -1 12 -2 12 -2 -1 -12 -3 -23 -5z"/>
<path d="M138 128 c-62 -33 -78 -47 -78 -64 0 -13 4 -25 10 -29 12 -7 132 53
126 64 -3 4 4 22 14 39 11 18 16 32 12 32 -4 0 -42 -19 -84 -42z"/>
</g>
</svg>
